<?xml version="1.0" standalone="no"?>
<!DOCTYPE svg PUBLIC "-//W3C//DTD SVG 20010904//EN"
 "http://www.w3.org/TR/2001/REC-SVG-20010904/DTD/svg10.dtd">
<svg version="1.0" xmlns="http://www.w3.org/2000/svg"
 width="32.000000pt" height="32.000000pt" viewBox="0 0 32.000000 32.000000"
 preserveAspectRatio="xMidYMid meet">

<g transform="translate(0.000000,32.000000) scale(0.100000,-0.100000)"
fill="#000000" stroke="none">
<path d="M50 160 l0 -110 110 0 110 0 0 110 0 110 -110 0 -110 0 0 -110z m200
0 l0 -90 -90 0 -90 0 0 90 0 90 90 0 90 0 0 -90z"/>
<path d="M102 218 c-20 -20 -14 -37 33 -83 48 -48 65 -54 85 -29 11 12 10 18
-3 31 -13 14 -19 14 -32 3 -14 -11 -19 -10 -37 8 -18 17 -19 23 -8 36 10 13
10 19 0 31 -15 18 -22 19 -38 3z"/>
</g>
</svg>
